<svg version="1.1" id="Layer_1" xmlns="http://www.w3.org/2000/svg" xmlns:xlink="http://www.w3.org/1999/xlink" x="0px" y="0px"
	 width="100%" viewBox="0 0 117 117" enable-background="new 0 0 117 117" xml:space="preserve">
<path fill="#FEFEFE" opacity="1.000000" stroke="none" 
	d="
M85.000000,118.000000 
	C56.666668,118.000000 28.833334,118.000000 1.000000,118.000000 
	C1.000000,79.000000 1.000000,40.000000 1.000000,1.000000 
	C40.000000,1.000000 79.000000,1.000000 118.000000,1.000000 
	C118.000000,40.000000 118.000000,79.000000 118.000000,118.000000 
	C107.166664,118.000000 96.333336,118.000000 85.000000,118.000000 
M40.610779,97.868637 
	C54.759190,97.868546 68.908035,97.934044 83.055824,97.840515 
	C90.065102,97.794174 93.440941,93.539276 91.969032,86.726006 
	C91.166229,83.009911 90.142715,79.330177 89.009903,75.699196 
	C87.007088,69.279518 83.070152,64.296356 77.505417,60.499588 
	C75.210815,58.934002 73.404823,58.666889 70.772789,60.186298 
	C63.293793,64.503738 55.664883,64.166153 47.928360,60.305233 
	C46.284836,59.485031 43.357906,59.531368 41.820515,60.476681 
	C30.730776,67.295540 28.047382,78.654968 26.877014,90.419563 
	C26.436396,94.848701 29.931988,97.179512 34.165379,97.785118 
	C35.961346,98.042038 37.820930,97.854286 40.610779,97.868637 
M78.013855,35.706211 
	C77.478905,34.322063 77.053703,32.882805 76.390808,31.562916 
	C72.689148,24.192499 64.527344,20.026140 56.544792,21.365124 
	C48.518917,22.711376 41.999187,29.076323 40.889084,36.649155 
	C39.552368,45.767872 43.513496,53.288654 51.395027,57.194988 
	C64.000015,63.442425 80.990303,53.246326 78.013855,35.706211 
z"/>
<path fill="#040404" opacity="1.000000" stroke="none" 
	d="
M40.131187,97.868637 
	C37.820930,97.854286 35.961346,98.042038 34.165379,97.785118 
	C29.931988,97.179512 26.436396,94.848701 26.877014,90.419563 
	C28.047382,78.654968 30.730776,67.295540 41.820515,60.476681 
	C43.357906,59.531368 46.284836,59.485031 47.928360,60.305233 
	C55.664883,64.166153 63.293793,64.503738 70.772789,60.186298 
	C73.404823,58.666889 75.210815,58.934002 77.505417,60.499588 
	C83.070152,64.296356 87.007088,69.279518 89.009903,75.699196 
	C90.142715,79.330177 91.166229,83.009911 91.969032,86.726006 
	C93.440941,93.539276 90.065102,97.794174 83.055824,97.840515 
	C68.908035,97.934044 54.759190,97.868546 40.131187,97.868637 
z"/>
<path fill="#040404" opacity="1.000000" stroke="none" 
	d="
M78.052948,36.101410 
	C80.990303,53.246326 64.000015,63.442425 51.395027,57.194988 
	C43.513496,53.288654 39.552368,45.767872 40.889084,36.649155 
	C41.999187,29.076323 48.518917,22.711376 56.544792,21.365124 
	C64.527344,20.026140 72.689148,24.192499 76.390808,31.562916 
	C77.053703,32.882805 77.478905,34.322063 78.052948,36.101410 
z"/>
</svg>